<svg width="17" height="17" viewBox="0 0 17 17" fill="none" xmlns="http://www.w3.org/2000/svg">
<g clip-path="url(#clip0_702_19921)">
<path fill-rule="evenodd" clip-rule="evenodd" d="M3.47976 3.47952C3.09541 3.47952 2.78383 3.7911 2.78383 4.17545V13.9185C2.78383 14.3028 3.09541 14.6144 3.47976 14.6144H13.2228C13.6071 14.6144 13.9187 14.3028 13.9187 13.9185V4.17545C13.9187 3.7911 13.6071 3.47952 13.2228 3.47952H3.47976ZM1.39197 4.17545C1.39197 3.0224 2.3267 2.08766 3.47976 2.08766H13.2228C14.3758 2.08766 15.3106 3.0224 15.3106 4.17545V13.9185C15.3106 15.0715 14.3758 16.0063 13.2228 16.0063H3.47976C2.3267 16.0063 1.39197 15.0715 1.39197 13.9185V4.17545Z" fill="#424242"/>
<path fill-rule="evenodd" clip-rule="evenodd" d="M11.135 0.695801C11.5193 0.695801 11.8309 1.00738 11.8309 1.39173V4.17545C11.8309 4.5598 11.5193 4.87138 11.135 4.87138C10.7506 4.87138 10.4391 4.5598 10.4391 4.17545V1.39173C10.4391 1.00738 10.7506 0.695801 11.135 0.695801Z" fill="#424242"/>
<path fill-rule="evenodd" clip-rule="evenodd" d="M5.56755 0.695801C5.9519 0.695801 6.26348 1.00738 6.26348 1.39173V4.17545C6.26348 4.5598 5.9519 4.87138 5.56755 4.87138C5.1832 4.87138 4.87162 4.5598 4.87162 4.17545V1.39173C4.87162 1.00738 5.1832 0.695801 5.56755 0.695801Z" fill="#424242"/>
<path fill-rule="evenodd" clip-rule="evenodd" d="M1.39197 6.95917C1.39197 6.57482 1.70355 6.26324 2.0879 6.26324H14.6146C14.999 6.26324 15.3106 6.57482 15.3106 6.95917C15.3106 7.34353 14.999 7.65511 14.6146 7.65511H2.0879C1.70355 7.65511 1.39197 7.34353 1.39197 6.95917Z" fill="#424242"/>
</g>
<defs>
<clipPath id="clip0_702_19921">
<rect width="16.7023" height="16.7023" fill="white"/>
</clipPath>
</defs>
</svg>
